<svg height="511pt" viewBox="0 0 511 511.99788" width="511pt" xmlns="http://www.w3.org/2000/svg"><path d="m503.683594 8.8125c-30.671875-30.671875-118.007813 25.691406-167.886719 62.484375-24.351563-10.496094-51.171875-16.324219-79.332031-16.324219-35.542969 0-70.480469 9.402344-101.027344 27.1875-3.605469 2.101563-4.828125 6.726563-2.726562 10.335938 2.101562 3.605468 6.726562 4.828125 10.335937 2.726562 28.238281-16.441406 60.542969-25.132812 93.417969-25.132812 35.472656 0 68.648437 9.988281 96.882812 27.292968-14.488281 20.964844-26.867187 37.632813-29.628906 40.394532-4.921875 4.453125-44.167969 19.277344-77.707031 30.457031-.523438.175781-1.023438.40625-1.496094.6875l-40.3125 24.1875c-2.851563 1.710937-4.253906 5.089844-3.445313 8.316406.085938.347657 2.15625 8.574219 5.296876 16.945313 1.195312 3.191406 2.515624 6.398437 4.03125 9.320312l-13.160157-3.132812c-1.832031-.4375-3.726562-.160156-5.335937.710937l-25.265625-45.476562c-.515625-.925781-1.222657-1.738281-2.074219-2.375l-32.25-24.1875c-1.304688-.980469-2.898438-1.511719-4.535156-1.511719h-24.894532c8.757813-12.929688 19.179688-24.832031 31.128907-35.347656 3.136719-2.757813 3.441406-7.53125.683593-10.667969-2.757812-3.132813-7.535156-3.4375-10.667968-.683594-43.410156 38.195313-68.308594 93.234375-68.308594 151.007813 0 27.460937 5.652344 54.449218 16.328125 79.332031-28.363281 38.457031-49.398437 73.40625-60.875 101.1875-13.25 32.074219-13.792969 54.515625-1.613281 66.699219 5.835937 5.835937 14.015625 8.75 24.476562 8.75 13.542969 0 30.917969-4.886719 51.988282-14.652344 26.179687-12.132812 57.371093-31.464844 91.398437-56.570312 13.40625 5.773437 27.460937 10.09375 41.917969 12.816406l9.570312 15.949218c2.488282 4.148438 8.402344 4.878907 11.824219 1.457032l13.925781-13.925782c.707032.007813 1.410156.015626 2.117188.015626 30.84375 0 61.464844-7.148438 88.941406-20.703126l2.984375 4.769532c2.535156 4.054687 8.367187 4.722656 11.753906 1.339844l22.804688-22.804688c1.855469-1.855469 2.613281-4.542969 2.007812-7.097656l-.386719-1.609375c.023438-.015625.042969-.023438.066407-.042969 46.320312-38.363281 72.882812-94.828125 72.882812-154.910156 0-28.160156-5.828125-54.980469-16.324219-79.332032 24.730469-33.519531 43.863282-64.292968 56.042969-90.265624 17.8125-37.96875 19.976563-64.085938 6.445313-77.617188zm-266.992188 222.902344c-3.355468-4.34375-7.011718-6.804688-10.894531-7.324219-2.316406-2.585937-6.070313-11.636719-8.910156-21.261719l34.699219-20.820312c3.714843-1.25 19.925781-6.726563 36.71875-12.914063 39.855468-14.683593 44.050781-18.878906 46.066406-20.894531 4.394531-4.394531 18.808594-24.28125 31.53125-42.695312 7.386718 5.394531 14.363281 11.324218 20.875 17.726562l-15.664063 23.492188c-.59375.890624-.992187 1.894531-1.167969 2.953124l-7.007812 42.058594h-41.972656c-3.601563 0-6.703125 2.539063-7.410156 6.074219l-8.0625 40.3125c-.449219 2.242187.140624 4.566406 1.605468 6.320313l5.808594 6.972656-.367188.371094-74.542968-17.75c-.253906-.921876-.683594-1.8125-1.304688-2.621094zm171.1875-36.390625c-6.453125-3.78125-15.773437-4-26.847656-.511719-1.140625.363281-2.289062.761719-3.429688 1.1875l6.988282-41.941406 12.800781-19.195313c10.40625 12.082031 19.28125 25.515625 26.335937 39.996094-4.996093 6.628906-10.277343 13.453125-15.847656 20.464844zm-178.144531 207.976562c-4.566406 4.566407-11.148437 5.902344-16.90625 4.035157l32.875-33.105469c2.941406-2.960938 2.925781-7.746094-.035156-10.6875-2.960938-2.941407-7.75-2.925781-10.691407.035156l-32.816406 33.042969c-1.832031-5.742188-.488281-12.289063 4.058594-16.839844l159.628906-159.628906c3.304688-3.304688 10.890625-8.132813 19.730469-10.921875 3.082031-.96875 6.300781-1.714844 9.542969-1.792969 1.871094-.046875 4.816406-.035156 5.996094 1.753906.953124 1.445313 1 3.503906.960937 5.167969-.070313 3.253906-.820313 6.488281-1.792969 9.578125-2.789062 8.839844-7.617187 16.425781-10.921875 19.734375zm-14.132813-75.542969-4.429687-39.878906 40.347656 25.21875-46.617187 46.617188-8.375-1.929688 17.710937-24.800781c1.085938-1.515625 1.570313-3.378906 1.363281-5.226563zm105.421876-89.914062 6.136718-30.691406h30.550782c-.921876.765625-1.78125 1.539062-2.554688 2.3125l-31.515625 31.515625zm-128.371094 134.558594c-4.164063 5.507812-6.296875 12.066406-6.394532 18.65625l-30.203124-18.121094 7.292968-7.296875zm-31.0625 21.484375 29.164062 17.5c-5.304687 4.164062-10.503906 8.164062-15.585937 11.992187-13.832031-6.699218-26.648438-15.03125-38.230469-24.742187l24.203125-4.640625c.152344-.027344.300781-.070313.449219-.109375zm35.941406-153.644531 102.453125 24.394531-37.492187 37.492187-78.058594-48.789062zm-104.191406-73.417969c.09375.003906.183594.015625.277344.015625h31.328124l28.945313 21.707031 26.414063 47.542969-13.28125 13.28125c-3.386719 3.386718-2.714844 9.222656 1.339843 11.753906l26.464844 16.539062 5.429687 48.886719-19.679687 27.550781-17.914063-4.132812c-2.539062-.585938-5.199218.175781-7.042968 2.019531l-17.105469 17.105469c-2.414063 2.414062-2.894531 6.277344-1.144531 9.210938 1.125 1.890624 2.992187 2.847656 4.804687 3.9375-5.304687 1.015624-10.609375 2.03125-15.914062 3.050781-.996094.191406-2.027344.328125-2.992188.660156-32.867187-33.734375-52.746093-79.773437-52.746093-129.925781 0-31.503906 8.015624-62.128906 22.816406-89.203125zm-59.503906 330.125c-6.378907 0-11.03125-1.523438-13.898438-4.390625-12.710938-12.707032 1.007812-61.289063 59.226562-141.742188 6.632813 12.414063 14.578126 24.175782 23.769532 35.035156 16.527344 19.527344 36.53125 35.589844 58.753906 47.488282-62.054688 44.953125-105.527344 63.609375-127.851562 63.609375zm157.3125-66.734375c3.132812-2.398438 6.28125-4.84375 9.453124-7.332032l7.671876 12.789063c-5.835938-1.554687-11.546876-3.375-17.125-5.457031zm45.433593 23.246094-18.125-30.203126c6.589844-.097656 13.152344-2.230468 18.65625-6.394531l6.761719 29.304688zm21.832031-11.523438-8.613281-37.324219 46.617188-46.617187 40.929687 65.488281c-24.46875 11.824219-51.574218 18.167969-78.933594 18.453125zm97.761719-16.851562-48.789062-78.0625 36.425781-36.421876 1.066406-1.070312 24.394532 102.453125zm24.453125-30.667969-22.964844-96.464844c10.925782 4.246094 19.292969 8.632813 22.453126 11.796875 1.273437 1.269531 5.136718 5.128906 40.722656 33.269531-10.144532 19.15625-23.6875 36.574219-40.210938 51.398438zm61.777344-138.390625c0 25.46875-5.175781 50.226562-14.890625 73-28.078125-22.238282-35.070313-28.332032-36.707031-29.96875-4.179688-4.179688-11.707032-8.566406-22.394532-13.0625l31.636719-31.636719c5.761719-5.757813 11.511719-15.914063 14.652344-25.875 2.398437-7.613281 3.042969-14.394531 1.988281-19.992187.070313-.078126.148438-.152344.214844-.234376 4.707031-5.882812 9.269531-11.703124 13.679688-17.453124 7.632812 20.304687 11.820312 42.285156 11.820312 65.222656zm-91.179688-177.28125c80.484376-58.238282 129.085938-71.921875 141.765626-59.246094 12.972656 12.96875-1.398438 62.019531-59.230469 141.792969-18.761719-34.96875-47.566407-63.777344-82.535157-82.546875zm0 0"/></svg>